<?xml version="1.0" standalone="no"?>
<!DOCTYPE svg PUBLIC "-//W3C//DTD SVG 20010904//EN"
 "http://www.w3.org/TR/2001/REC-SVG-20010904/DTD/svg10.dtd">
<svg version="1.0" xmlns="http://www.w3.org/2000/svg"
 width="350.000000pt" height="350.000000pt" viewBox="0 0 350.000000 350.000000"
 preserveAspectRatio="xMidYMid meet">
<metadata>
Created by potrace 1.11, written by Peter Selinger 2001-2013
</metadata>
<g transform="translate(0.000000,350.000000) scale(0.100000,-0.100000)"
fill="#000000" stroke="none">
<path d="M739 1759 c-370 -858 -675 -1565 -677 -1570 -2 -5 145 -9 366 -9
l370 0 144 338 145 337 663 0 664 0 145 -337 146 -338 367 0 c203 0 368 2 368
5 0 4 -1124 2610 -1325 3073 l-28 62 -336 0 -337 0 -675 -1561z m1207 181
c102 -239 189 -443 191 -452 5 -17 -18 -18 -386 -18 -215 0 -391 3 -391 6 0 3
78 186 174 407 96 221 184 424 196 451 11 27 22 47 25 45 2 -3 88 -200 191
-439z"/>
</g>
</svg>
